<?xml version="1.0" encoding="utf-8"?>
<!-- Generator: Adobe Illustrator 22.0.0, SVG Export Plug-In . SVG Version: 6.00 Build 0)  -->
<svg version="1.1" id="Layer_1" xmlns="http://www.w3.org/2000/svg" xmlns:xlink="http://www.w3.org/1999/xlink" x="0px" y="0px"
	 viewBox="0 0 610 610" style="enable-background:new 0 0 610 610;" xml:space="preserve">
<style type="text/css">
	.st0{fill:#1B1464;}
	.st1{fill:#FFFFFF;}
	.st2{fill:#115EA5;}
	.st3{fill:url(#XMLID_2_);}
</style>
<g id="Inner_Circle">
</g>
<g id="Middle_Body">
	<polygon id="XMLID_11_" class="st0" points="396.8,266 305.6,518.3 213.9,266 	"/>
</g>
<g id="Outside_Bodies">
	<polygon id="XMLID_9_" class="st0" points="89.6,313 156.1,502 216.9,273.5 	"/>
	<polygon id="XMLID_8_" class="st0" points="520.9,313 454.4,502 393.6,273.5 	"/>
</g>
<g id="_x33__Heads">
	<path id="XMLID_17_" class="st1" d="M404.2,227.6c0,11.5-2,22.6-5.6,32.9c-0.5,1.6-1.2,3.2-1.8,4.7c0,0.1-0.1,0.2-0.1,0.3
		c-0.9,2.1-1.9,4.3-2.9,6.3c-16.2,32.3-49.6,54.4-88.1,54.4c-41,0-76.2-25.1-91-60.7c0-0.1-0.1-0.2-0.1-0.3
		c-4.8-11.6-7.4-24.3-7.4-37.6c0-54.4,44.1-98.5,98.6-98.5C360.1,129.1,404.2,173.2,404.2,227.6z"/>
	<path id="XMLID_18_" class="st1" d="M219.5,292.1c0,18.8-7.8,35.8-20.3,47.8c-12,11.5-28.2,18.6-46.1,18.6
		c-29.5,0-54.4-19.2-63.2-45.7c-1.2-3.5-2-7.2-2.6-11c-0.5-3.2-0.7-6.5-0.7-9.8c0-36.7,29.8-66.5,66.5-66.5
		c27.2,0,50.5,16.3,60.8,39.7c0,0.1,0.1,0.1,0.1,0.2c1.1,2.6,2.1,5.3,2.9,8l0,0c0.1,0.3,0.2,0.7,0.3,1
		C218.7,280.1,219.5,286,219.5,292.1z"/>
	<path id="XMLID_20_" class="st1" d="M523.5,292.1c0,3.1-0.2,6.3-0.6,9.3c-0.5,3.9-1.4,7.7-2.6,11.4c-8.7,26.6-33.7,45.8-63.2,45.8
		c-17.7,0-33.7-6.9-45.7-18.2c-12.8-12.1-20.8-29.3-20.8-48.3c0-4.5,0.5-8.9,1.3-13.2c0.5-2.4,1.1-4.8,1.9-7.1
		c0.7-2.2,1.5-4.3,2.4-6.3c0-0.1,0.1-0.2,0.1-0.4c0.7-1.6,1.5-3.1,2.3-4.6c11.3-20.8,33.2-34.9,58.5-34.9
		C493.8,225.6,523.5,255.4,523.5,292.1z"/>
</g>
<g id="Circle">
	<path id="XMLID_12_" class="st2" d="M610.1,305.1c0,28.8-4,56.7-11.5,83.1c0-33.4-28.7-63.8-75.7-86.8c0.4-3,0.6-6.1,0.6-9.3
		c0-36.7-29.8-66.5-66.5-66.5c-25.3,0-47.3,14.1-58.5,34.9c3.6-10.3,5.6-21.3,5.6-32.9c0-54.4-44.1-98.5-98.5-98.5
		S207,173.2,207,227.6c0,13.3,2.6,26,7.4,37.6c-0.2,0-0.4,0.1-0.6,0.1c-10.3-23.3-33.7-39.7-60.8-39.7c-36.7,0-66.5,29.8-66.5,66.5
		c0,3.3,0.2,6.6,0.7,9.8c-46.5,22.9-74.7,53.1-74.7,86.3C5,361.8,1,333.9,1,305.1C1,136.9,137.3,0.6,305.5,0.6
		C473.8,0.6,610.1,136.9,610.1,305.1z"/>
	
		<linearGradient id="XMLID_2_" gradientUnits="userSpaceOnUse" x1="305.6" y1="362.4068" x2="305.6" y2="-209.9772" gradientTransform="matrix(1 0 0 -1 0 612)">
		<stop  offset="0" style="stop-color:#FFFFFF"/>
		<stop  offset="8.333375e-02" style="stop-color:#F8FDFF"/>
		<stop  offset="1" style="stop-color:#48CBF3"/>
	</linearGradient>
	<path id="XMLID_46_" class="st3" d="M598.6,388.2c-3.9,14-8.9,27.5-14.7,40.6c-47.4,106.5-154.2,180.8-278.3,180.8
		S74.7,535.3,27.3,428.8c-5.8-13.1-10.7-26.6-14.7-40.6c0-33.2,28.3-63.4,74.7-86.3c-0.5-3.2-0.7-6.5-0.7-9.8
		c0-36.7,29.8-66.5,66.5-66.5c27.2,0,50.5,16.3,60.8,39.7c0.2,0,0.4-0.1,0.6-0.1c-4.8-11.6-7.4-24.3-7.4-37.6
		c0-54.4,44.1-98.5,98.6-98.5c54.4,0,98.5,44.1,98.5,98.5c0,11.5-2,22.6-5.6,32.9c11.3-20.8,33.2-34.9,58.5-34.9
		c36.7,0,66.5,29.8,66.5,66.5c0,3.1-0.2,6.3-0.6,9.3C569.9,324.4,598.6,354.8,598.6,388.2z"/>
</g>
</svg>
